<?xml version="1.0" standalone="no"?>
<!DOCTYPE svg PUBLIC "-//W3C//DTD SVG 20010904//EN"
 "http://www.w3.org/TR/2001/REC-SVG-20010904/DTD/svg10.dtd">
<svg version="1.0" xmlns="http://www.w3.org/2000/svg"
 width="612.000000pt" height="408.000000pt" viewBox="0 0 612.000000 408.000000"
 preserveAspectRatio="xMidYMid meet">
<metadata>
Created by potrace 1.16, written by Peter Selinger 2001-2019
</metadata>
<g transform="translate(0.000000,408.000000) scale(0.100000,-0.100000)"
fill="#fff" stroke="none">
<path d="M3055 3624 c-367 -28 -760 -108 -1060 -218 -58 -21 -258 -107 -270
-116 -5 -4 -41 -24 -80 -45 -107 -57 -229 -142 -319 -221 -213 -186 -329 -374
-408 -659 -30 -110 -32 -380 -4 -500 18 -79 60 -213 76 -244 4 -9 20 -43 34
-76 14 -33 29 -60 33 -60 4 1 31 4 59 9 74 11 127 -6 179 -59 24 -23 48 -58
54 -76 5 -19 17 -54 26 -79 20 -55 14 -111 -20 -161 -20 -31 -22 -39 -11 -55
12 -16 16 -16 47 -2 72 34 137 50 224 56 l90 7 5 35 c17 100 105 217 198 260
59 28 144 41 206 32 l50 -7 82 82 c96 97 116 102 174 49 33 -29 131 -76 161
-76 6 0 1 -13 -10 -29 -12 -16 -21 -39 -21 -50 0 -36 27 -23 50 24 16 33 27
44 39 41 9 -2 44 -8 79 -11 34 -4 64 -10 66 -14 8 -13 -14 -155 -24 -161 -14
-9 15 -33 32 -28 7 3 28 -1 46 -9 18 -7 37 -11 42 -8 5 3 12 1 15 -5 7 -11 14
-12 155 -14 74 -1 96 3 170 32 101 39 116 47 113 60 -1 5 8 7 20 5 15 -3 26 3
36 19 10 18 10 20 0 10 -11 -10 -17 -1 -36 50 -34 93 -32 103 25 118 26 7 59
19 73 26 25 12 28 11 55 -26 16 -22 34 -40 40 -40 23 0 23 30 -1 58 -27 32
-23 42 24 67 19 9 56 37 82 62 41 38 52 44 77 39 34 -8 137 -74 171 -110 23
-25 24 -25 55 -8 23 12 56 16 131 16 124 -1 174 -21 255 -103 54 -55 100 -143
100 -192 0 -26 16 -16 40 24 18 30 18 30 -5 61 -39 51 -41 100 -9 197 23 66
38 93 71 125 56 55 140 70 223 41 l35 -13 140 144 c235 242 336 398 380 589
40 173 13 334 -84 498 -54 90 -125 170 -199 225 -19 14 -46 35 -60 46 -27 21
-180 114 -188 114 -2 0 -35 14 -72 31 -37 17 -80 37 -97 45 -155 70 -512 148
-805 174 -87 8 -661 11 -755 4z m99 -784 c187 -49 336 -171 422 -344 43 -87
56 -145 61 -276 6 -142 -21 -242 -96 -360 -145 -227 -423 -349 -667 -295 -157
35 -245 83 -354 194 -122 125 -180 267 -180 444 0 321 217 584 533 647 79 15
200 11 281 -10z m-1094 -109 c0 -5 -22 -56 -49 -113 -27 -56 -61 -132 -76
-168 -26 -62 -48 -109 -123 -270 -19 -41 -43 -94 -53 -117 l-18 -43 99 0 100
0 0 135 0 135 100 0 100 0 0 -135 0 -135 45 0 45 0 0 -99 0 -100 -42 -3 -43
-3 -3 -82 -3 -83 -99 0 -100 0 0 85 0 85 -221 0 -221 0 4 109 c2 60 8 114 15
122 9 12 30 56 135 289 11 25 35 77 53 115 18 39 48 104 67 145 20 41 42 90
49 108 l14 32 112 0 c62 0 113 -4 113 -9z m2260 -18 c-6 -16 -14 -37 -19 -48
-24 -52 -87 -187 -117 -252 -19 -39 -34 -74 -34 -78 0 -5 -13 -35 -91 -200
-16 -33 -33 -72 -38 -87 l-11 -28 100 0 100 0 0 135 0 135 100 0 100 0 0 -135
0 -135 45 0 45 0 0 -100 0 -100 -45 0 -45 0 0 -85 0 -85 -100 0 -100 0 0 85 0
85 -220 0 -220 0 0 96 c0 80 4 104 25 150 14 30 37 80 51 112 26 58 44 96 107
232 19 41 44 98 56 125 12 28 39 85 59 127 l37 78 112 0 113 0 -10 -27z
m-1000 -1284 c12 -40 18 -75 13 -80 -5 -5 -41 -15 -80 -22 l-72 -14 -6 29 c-4
15 -13 28 -21 28 -8 0 -14 5 -14 10 0 6 7 10 15 10 10 0 15 11 15 35 0 28 -4
35 -20 35 -42 0 -18 17 38 27 113 20 108 22 132 -58z m-336 21 c-28 -11 -22
-70 7 -70 25 0 24 -16 -1 -23 -15 -4 -20 -14 -20 -36 l0 -31 -84 0 c-47 0 -88
5 -91 10 -4 6 -1 36 5 68 20 100 10 92 113 91 61 0 85 -3 71 -9z"/>
<path d="M2990 2444 c-92 -6 -271 -35 -343 -56 -85 -24 -140 -75 -162 -152
-14 -47 -13 -59 5 -146 29 -142 47 -200 78 -249 94 -153 376 -235 587 -173
138 42 255 132 305 237 24 51 30 81 39 195 13 150 4 203 -44 265 -48 64 -92
77 -260 80 -82 1 -175 1 -205 -1z m278 -140 c4 -6 14 -13 23 -16 25 -10 22
-87 -5 -114 -55 -55 -153 -21 -151 53 1 54 36 89 87 89 21 -1 42 -6 46 -12z
m-468 -40 c0 -8 6 -14 13 -14 23 0 37 -21 26 -42 -6 -12 -6 -18 1 -18 19 0 10
-25 -21 -58 -21 -23 -35 -30 -42 -23 -6 6 -16 6 -30 -2 -15 -9 -21 -9 -24 1
-3 7 -16 18 -30 23 -17 6 -24 15 -22 32 2 12 -1 28 -5 36 -6 10 -3 19 10 30
11 9 23 23 26 32 8 21 98 24 98 3z m267 -310 c3 -8 11 -14 19 -14 8 0 15 -11
15 -27 1 -16 3 -46 4 -68 2 -28 -3 -45 -16 -58 -11 -10 -19 -23 -19 -29 0 -6
-9 -8 -22 -5 -12 4 -28 1 -36 -6 -11 -9 -17 -8 -26 4 -6 8 -19 18 -28 22 -11
4 -19 18 -19 34 -1 15 -3 49 -5 76 -2 34 1 47 10 47 8 0 16 9 19 19 4 16 14
19 51 19 32 0 49 -4 53 -14z"/>
<path d="M4233 1298 c-67 -18 -96 -106 -52 -162 26 -33 35 -33 42 2 6 26 58
92 74 92 4 0 18 9 31 18 20 16 22 20 9 31 -24 20 -70 28 -104 19z"/>
<path d="M1759 1121 l-23 -18 22 -7 c31 -10 102 -95 102 -122 0 -31 14 -30 39
2 52 66 5 164 -77 164 -24 0 -49 -7 -63 -19z"/>
<path d="M2271 1054 c-1 -34 -30 -123 -55 -172 -9 -17 -39 -55 -66 -84 l-50
-53 -68 1 c-51 0 -80 7 -122 27 l-55 27 -26 -58 -27 -57 22 -17 c36 -29 239
-139 251 -136 9 2 9 18 -1 63 -20 92 -18 112 10 119 34 8 120 106 150 170 30
63 50 145 43 178 -3 18 -5 16 -6 -8z"/>
<path d="M3155 563 c-99 -4 -414 -49 -515 -74 -52 -13 -96 -43 -114 -80 -15
-30 -13 -56 2 -33 44 65 72 79 204 103 344 64 672 84 906 55 34 -4 52 -14 82
-45 21 -22 41 -35 44 -30 10 16 -77 97 -113 104 -31 7 -341 7 -496 0z"/>
</g>
</svg>
