<?xml version="1.0" encoding="UTF-8" standalone="no" ?>
<!DOCTYPE svg PUBLIC "-//W3C//DTD SVG 1.1//EN" "http://www.w3.org/Graphics/SVG/1.1/DTD/svg11.dtd">
<svg xmlns="http://www.w3.org/2000/svg" xmlns:xlink="http://www.w3.org/1999/xlink" version="1.1" width="1200" height="1200" viewBox="0 0 1200 1200" xml:space="preserve">
<desc>Created with Fabric.js 5.2.4</desc>
<defs>
</defs>
<rect x="0" y="0" width="100%" height="100%" fill="transparent"></rect>
<g transform="matrix(1 0 0 1 600 600)" id="74ce7354-4ca4-4e9f-b133-370911f33890"  >
<rect style="stroke: none; stroke-width: 1; stroke-dasharray: none; stroke-linecap: butt; stroke-dashoffset: 0; stroke-linejoin: miter; stroke-miterlimit: 4; fill: rgb(255,255,255); fill-rule: nonzero; opacity: 1; visibility: hidden;" vector-effect="non-scaling-stroke"  x="-600" y="-600" rx="0" ry="0" width="1200" height="1200" />
</g>
<g transform="matrix(Infinity NaN NaN Infinity 0 0)" id="cacf3e45-abdd-45e4-9c94-e432f9ea6155"  >
</g>
<g transform="matrix(5 0 0 5 1200 1200)"  >
<rect style="stroke: none; stroke-width: 1; stroke-dasharray: none; stroke-linecap: butt; stroke-dashoffset: 0; stroke-linejoin: miter; stroke-miterlimit: 4; fill: rgb(255,255,255); fill-rule: nonzero; opacity: 1; visibility: hidden;" vector-effect="non-scaling-stroke"  x="-540" y="-540" rx="0" ry="0" width="1080" height="1080" />
</g>
<g transform="matrix(5 0 0 5 1200 1200)"  >
<rect style="stroke: none; stroke-width: 1; stroke-dasharray: none; stroke-linecap: butt; stroke-dashoffset: 0; stroke-linejoin: miter; stroke-miterlimit: 4; fill: rgb(255,255,255); fill-rule: nonzero; opacity: 1; visibility: hidden;" vector-effect="non-scaling-stroke"  x="-540" y="-540" rx="0" ry="0" width="1080" height="1080" />
</g>
<g transform="matrix(0.66 0 0 -0.66 538.53 233.64)"  >
<path style="stroke: rgb(115,125,182); stroke-width: 1; stroke-dasharray: none; stroke-linecap: butt; stroke-dashoffset: 0; stroke-linejoin: miter; stroke-miterlimit: 4; fill: rgb(115,125,182); fill-rule: nonzero; opacity: 1;" vector-effect="non-scaling-stroke"  transform=" translate(-1095, -1837.9)" d="M 1010 1913 L 1010 1635 L 1088 1557 C 1131 1515 1169 1483 1173 1486 C 1177 1490 1180 1615 1180 1765 L 1180 2036 L 1100 2113 C 1056 2155 1018 2190 1015 2190 C 1012 2190 1010 2065 1010 1913 z" stroke-linecap="round" />
</g>
<g transform="matrix(0.66 0 0 -0.66 600 600)"  >
<path style="stroke: none; stroke-width: 1; stroke-dasharray: none; stroke-linecap: butt; stroke-dashoffset: 0; stroke-linejoin: miter; stroke-miterlimit: 4; fill: rgb(255,0,0); fill-rule: nonzero; opacity: 1;" vector-effect="non-scaling-stroke"  transform=" translate(-1181.87, -1181.74)" d="M 617 1566 C 535 1532 487 1496 443 1436 C 406 1387 396 1368 371 1307 C 357 1271 357 1099 371 1063 C 421 940 490 861 586 815 C 649 785 756 770 832 781 C 914 793 994 837 1060 906 C 1099 947 1119 974 1114 982 C 1100 1005 1019 1110 1015 1110 C 1012 1110 1001 1092 990 1070 C 876 846 535 908 513 1157 C 506 1232 521 1286 565 1342 C 650 1455 827 1471 929 1376 C 961 1346 1027 1262 1183 1051 C 1308 882 1369 827 1465 797 C 1546 772 1596 769 1668 784 C 1832 818 1927 903 1991 1070 C 2010 1117 2006 1257 1985 1320 C 1962 1390 1892 1480 1829 1522 C 1746 1576 1685 1592 1577 1588 C 1497 1585 1476 1581 1418 1552 C 1346 1517 1234 1408 1247 1387 C 1250 1380 1274 1347 1299 1313 L 1345 1250 L 1363 1288 C 1389 1338 1436 1387 1485 1413 C 1515 1429 1543 1435 1600 1435 C 1664 1435 1682 1431 1722 1408 C 1945 1277 1855 930 1597 930 C 1492 930 1441 968 1309 1143 C 1258 1210 1205 1281 1190 1300 C 1176 1319 1142 1364 1115 1400 C 1048 1488 1016 1516 940 1553 C 882 1581 864 1585 775 1588 C 688 1590 668 1587 617 1566 z" stroke-linecap="round" />
</g>
<g transform="matrix(0.66 0 0 -0.66 654.31 951.58)"  >
<path style="stroke: rgb(115,125,182); stroke-width: 1; stroke-dasharray: none; stroke-linecap: butt; stroke-dashoffset: 0; stroke-linejoin: miter; stroke-miterlimit: 4; fill: rgb(115,125,182); fill-rule: nonzero; opacity: 1;" vector-effect="non-scaling-stroke"  transform=" translate(-1265, -540)" d="M 1186 868 C 1183 855 1180 732 1180 595 L 1180 345 L 1258 267 C 1300 225 1339 190 1343 190 C 1347 190 1350 313 1350 464 L 1350 737 L 1274 814 C 1232 856 1197 890 1195 890 C 1194 890 1190 880 1186 868 z" stroke-linecap="round" />
</g>
</svg>